<svg width="20" height="14" viewBox="0 0 20 14" fill="none" xmlns="http://www.w3.org/2000/svg">
<path d="M11.625 13.5937C11.375 13.3437 11.255 13.0417 11.265 12.6875C11.275 12.3333 11.4054 12.0312 11.6563 11.7812L15.1875 8.25H1.25C0.895838 8.25 0.598755 8.13 0.358755 7.89C0.118755 7.65 -0.000829008 7.35333 4.32525e-06 7C4.32525e-06 6.64583 0.120004 6.34875 0.360004 6.10875C0.600004 5.86875 0.896671 5.74917 1.25 5.75H15.1875L11.625 2.1875C11.375 1.9375 11.25 1.64042 11.25 1.29625C11.25 0.952083 11.375 0.655416 11.625 0.40625C11.875 0.15625 12.1721 0.03125 12.5163 0.03125C12.8604 0.03125 13.1571 0.15625 13.4063 0.40625L19.125 6.125C19.25 6.25 19.3388 6.38542 19.3913 6.53125C19.4438 6.67708 19.4696 6.83333 19.4688 7C19.4688 7.16667 19.4425 7.32292 19.39 7.46875C19.3375 7.61458 19.2492 7.75 19.125 7.875L13.375 13.625C13.1458 13.8542 12.8596 13.9688 12.5163 13.9688C12.1729 13.9688 11.8758 13.8437 11.625 13.5937Z" fill="#FF9A62"/>
</svg>
