<svg width="14" height="9" viewBox="0 0 14 9" fill="none" xmlns="http://www.w3.org/2000/svg">
<path d="M12.625 3.125C12.7908 3.125 12.9497 3.19085 13.0669 3.30806C13.1842 3.42527 13.25 3.58424 13.25 3.75C13.25 3.91576 13.1842 4.07473 13.0669 4.19194C12.9497 4.30915 12.7908 4.375 12.625 4.375H9.83125L9.75 5.13125L8.375 8.21875C8.25 8.53125 7.91875 8.75 7.5375 8.75H4.8125C4.3125 8.75 3.875 8.29375 3.875 7.8125V3.75C3.875 3.50625 3.975 3.2875 4.14375 3.125L6.76875 0.0625L7.25 0.525C7.375 0.64375 7.45 0.80625 7.45 0.9875L7.43125 1.125L6.375 3.125H12.625ZM0.75 8.75V3.75H2.625V8.75H0.75Z" fill="#FF6000"/>
</svg>
