<svg width="24" height="25" viewBox="0 0 24 25" fill="none" xmlns="http://www.w3.org/2000/svg">
<path d="M2.98023e-08 12.28C2.98023e-08 10.4133 0.306667 8.74667 0.92 7.28C1.56 5.81333 2.41333 4.57333 3.48 3.56C4.57333 2.54667 5.84 1.77333 7.28 1.24C8.72 0.679999 10.2533 0.399999 11.88 0.399999C13.5067 0.399999 15.04 0.679999 16.48 1.24C17.92 1.77333 19.1733 2.54667 20.24 3.56C21.3333 4.57333 22.1867 5.81333 22.8 7.28C23.44 8.74667 23.76 10.4133 23.76 12.28C23.76 14.1467 23.44 15.8133 22.8 17.28C22.1867 18.7467 21.3333 20 20.24 21.04C19.1733 22.0533 17.92 22.8267 16.48 23.36C15.04 23.8933 13.5067 24.16 11.88 24.16C10.0667 24.16 8.42667 23.8933 6.96 23.36C5.52 22.8267 4.28 22.0533 3.24 21.04C2.2 20 1.4 18.7467 0.84 17.28C0.28 15.8133 2.98023e-08 14.1467 2.98023e-08 12.28ZM2.4 12.28C2.4 13.8267 2.64 15.2 3.12 16.4C3.62667 17.6 4.30667 18.6133 5.16 19.44C6.01333 20.24 7.01333 20.8533 8.16 21.28C9.30667 21.7067 10.5467 21.92 11.88 21.92C13.1867 21.92 14.4133 21.7067 15.56 21.28C16.7333 20.8533 17.7467 20.24 18.6 19.44C19.4533 18.6133 20.12 17.6 20.6 16.4C21.1067 15.2 21.36 13.8267 21.36 12.28C21.36 10.7333 21.1067 9.36 20.6 8.16C20.12 6.96 19.4533 5.96 18.6 5.16C17.7467 4.33333 16.7333 3.70667 15.56 3.28C14.4133 2.85333 13.1867 2.64 11.88 2.64C10.5467 2.64 9.30667 2.85333 8.16 3.28C7.01333 3.70667 6.01333 4.33333 5.16 5.16C4.30667 5.96 3.62667 6.96 3.12 8.16C2.64 9.36 2.4 10.7333 2.4 12.28ZM15.84 17.8C15.3067 18.0933 14.72 18.32 14.08 18.48C13.44 18.64 12.6933 18.72 11.84 18.72C10.0267 18.72 8.64 18.1467 7.68 17C6.72 15.8267 6.24 14.2533 6.24 12.28C6.24 10.2267 6.74667 8.65333 7.76 7.56C8.8 6.44 10.16 5.88 11.84 5.88C12.6667 5.88 13.3333 5.96 13.84 6.12C14.3467 6.28 14.9333 6.50667 15.6 6.8L14.72 9C14.2133 8.76 13.7333 8.58667 13.28 8.48C12.8533 8.37333 12.48 8.32 12.16 8.32C11.2267 8.32 10.48 8.62667 9.92 9.24C9.38667 9.82667 9.12 10.84 9.12 12.28C9.12 14.92 10.2267 16.24 12.44 16.24C13.4533 16.24 14.3467 16.0267 15.12 15.6L15.84 17.8Z" fill="#FFE6C7"/>
</svg>
