<svg width="10" height="10" viewBox="0 0 10 10" fill="none" xmlns="http://www.w3.org/2000/svg">
<path opacity="0.2" d="M1.58221 1.5623L8.41502 1.5623C8.90799 1.5623 9.21737 2.07832 8.97792 2.49629L5.56151 8.42871C5.31542 8.8584 4.68182 8.8584 4.43573 8.42871L1.01932 2.49629C0.779868 2.07832 1.08924 1.5623 1.58221 1.5623Z" fill="#D68424"/>
<path d="M0.74958 2.65271L4.1656 8.58513C4.25096 8.73047 4.37282 8.85098 4.51911 8.93472C4.6654 9.01845 4.83103 9.0625 4.99958 9.0625C5.16814 9.0625 5.33377 9.01845 5.48005 8.93472C5.62634 8.85098 5.7482 8.73047 5.83357 8.58513L9.24958 2.65271C9.33172 2.51213 9.375 2.35224 9.375 2.18943C9.375 2.02661 9.33172 1.86673 9.24958 1.72615C9.16534 1.5799 9.04369 1.45871 8.89713 1.37503C8.75056 1.29134 8.58436 1.24818 8.4156 1.24997L1.58357 1.24997C1.41493 1.24832 1.24889 1.29155 1.10248 1.37522C0.956062 1.4589 0.834536 1.58001 0.750362 1.72615C0.668109 1.86666 0.62469 2.02651 0.624553 2.18932C0.624415 2.35214 0.667565 2.51206 0.74958 2.65271ZM1.29138 2.03904C1.32116 1.98824 1.36391 1.94627 1.41526 1.91744C1.4666 1.88861 1.52469 1.87396 1.58357 1.87497L8.4156 1.87497C8.47447 1.87396 8.53256 1.88861 8.58391 1.91744C8.63525 1.94627 8.678 1.98824 8.70778 2.03904C8.73476 2.08471 8.74899 2.13678 8.74899 2.18982C8.74899 2.24286 8.73476 2.29493 8.70778 2.3406L5.29177 8.27302C5.26139 8.32358 5.21844 8.36541 5.1671 8.39446C5.11576 8.4235 5.05778 8.43877 4.9988 8.43877C4.93982 8.43877 4.88184 8.4235 4.8305 8.39446C4.77916 8.36541 4.73621 8.32358 4.70583 8.27302L1.28981 2.3406C1.26308 2.29479 1.24912 2.24265 1.24939 2.1896C1.24967 2.13656 1.26417 2.08457 1.29138 2.03904Z" fill="#D68424"/>
</svg>
