<svg width="30" height="30" viewBox="0 0 30 30" fill="none" xmlns="http://www.w3.org/2000/svg">
<path d="M12.7148 1.64648V28.3538L21.0352 25.8578V4.14252L12.7148 1.64648ZM22.0862 3.22148L22.0898 3.35783V5.09777H23.0273V3.22277L22.0862 3.22148ZM6.97266 3.22277V10.0941H8.02734V4.27746H11.6602V3.22277H6.97266ZM22.0898 6.15246V7.08996H23.0273V6.15246H22.0898ZM22.0898 8.14465V21.9728H23.0273V8.14465H22.0898ZM8.02734 11.5857V13.6525H2.40234V16.3478H8.02734V18.4146L11.4418 15.0001L8.02734 11.5857ZM14.2969 13.5939C14.6852 13.5939 15 14.2235 15 15.0001C15 15.7768 14.6852 16.4064 14.2969 16.4064C13.9086 16.4064 13.5938 15.7768 13.5938 15.0001C13.5938 14.2235 13.9086 13.5939 14.2969 13.5939ZM8.02734 19.9062H6.97266V26.2501H8.02734V19.9062ZM22.0898 23.0275V23.8478H23.0273V23.0275H22.0898ZM22.0898 24.9025V26.2501H23.0273V24.9025H22.0898ZM1.875 27.5978V28.6525H11.6602V27.5978H1.875ZM18.9054 27.5978L15.3898 28.6525H28.125V27.5978H18.9054Z" fill="#222222"/>
</svg>
