<svg width="13" height="13" viewBox="0 0 13 13" fill="none" xmlns="http://www.w3.org/2000/svg">
<path d="M6.5 11.8125C9.60656 11.8125 12.125 9.21187 12.125 7.4375C12.125 5.66313 9.60656 3.0625 6.5 3.0625C3.39344 3.0625 0.875 5.665 0.875 7.4375C0.875 9.21 3.39344 11.8125 6.5 11.8125Z" stroke="#D9D9D9" stroke-width="1.25" stroke-linejoin="round"/>
<path d="M6.5 9.3125C6.99728 9.3125 7.47419 9.11496 7.82583 8.76333C8.17746 8.41169 8.375 7.93478 8.375 7.4375C8.375 6.94022 8.17746 6.46331 7.82583 6.11167C7.47419 5.76004 6.99728 5.5625 6.5 5.5625C6.00272 5.5625 5.52581 5.76004 5.17417 6.11167C4.82254 6.46331 4.625 6.94022 4.625 7.4375C4.625 7.93478 4.82254 8.41169 5.17417 8.76333C5.52581 9.11496 6.00272 9.3125 6.5 9.3125Z" stroke="#D9D9D9" stroke-width="1.25" stroke-linejoin="round"/>
<path d="M3.14453 2.52062L3.95516 3.65187M10.1323 2.65938L9.32141 3.79062M6.50234 1.1875V3.0625" stroke="#D9D9D9" stroke-width="1.25" stroke-linecap="round"/>
</svg>
