<svg width="26" height="24" viewBox="0 0 26 24" fill="none" xmlns="http://www.w3.org/2000/svg">
<path d="M13 22.625C19.2131 22.625 24.25 17.4237 24.25 13.875C24.25 10.3263 19.2131 5.125 13 5.125C6.78688 5.125 1.75 10.33 1.75 13.875C1.75 17.42 6.78688 22.625 13 22.625Z" stroke="#FF6000" stroke-width="2.5" stroke-linejoin="round"/>
<path d="M13 17.625C13.9946 17.625 14.9484 17.2299 15.6517 16.5267C16.3549 15.8234 16.75 14.8696 16.75 13.875C16.75 12.8804 16.3549 11.9266 15.6517 11.2233C14.9484 10.5201 13.9946 10.125 13 10.125C12.0054 10.125 11.0516 10.5201 10.3483 11.2233C9.64509 11.9266 9.25 12.8804 9.25 13.875C9.25 14.8696 9.64509 15.8234 10.3483 16.5267C11.0516 17.2299 12.0054 17.625 13 17.625Z" stroke="#FF6000" stroke-width="2.5" stroke-linejoin="round"/>
<path d="M6.29004 4.04125L7.91129 6.30375M20.2657 4.31875L18.6438 6.58125M13.0057 1.375V5.125" stroke="#FF6000" stroke-width="2.5" stroke-linecap="round"/>
</svg>
