<svg width="45" height="46" viewBox="0 0 45 46" fill="none" xmlns="http://www.w3.org/2000/svg">
<path d="M22.5 15.2656C20.9703 15.2656 19.4749 15.7192 18.203 16.5691C16.9311 17.419 15.9398 18.6269 15.3544 20.0402C14.769 21.4535 14.6158 23.0086 14.9142 24.5089C15.2127 26.0092 15.9493 27.3874 17.031 28.469C18.1126 29.5507 19.4908 30.2873 20.9911 30.5858C22.4914 30.8842 24.0465 30.731 25.4598 30.1456C26.8731 29.5602 28.081 28.5689 28.9309 27.297C29.7808 26.0251 30.2344 24.5297 30.2344 23C30.232 20.9494 29.4164 18.9835 27.9665 17.5335C26.5165 16.0836 24.5506 15.268 22.5 15.2656ZM22.5 29.3281C21.2484 29.3281 20.0249 28.957 18.9843 28.2616C17.9436 27.5663 17.1325 26.578 16.6536 25.4217C16.1746 24.2654 16.0493 22.993 16.2935 21.7654C16.5376 20.5379 17.1403 19.4103 18.0253 18.5253C18.9103 17.6403 20.0379 17.0376 21.2654 16.7935C22.493 16.5493 23.7654 16.6746 24.9217 17.1536C26.078 17.6325 27.0663 18.4436 27.7616 19.4843C28.457 20.5249 28.8281 21.7484 28.8281 23C28.8281 24.6783 28.1614 26.2879 26.9747 27.4747C25.7879 28.6614 24.1783 29.3281 22.5 29.3281ZM30.9375 5.42188H14.0625C11.6391 5.42467 9.31578 6.38859 7.60219 8.10219C5.88859 9.81578 4.92467 12.1391 4.92188 14.5625V31.4375C4.92467 33.8609 5.88859 36.1842 7.60219 37.8978C9.31578 39.6114 11.6391 40.5753 14.0625 40.5781H30.9375C33.3609 40.5753 35.6842 39.6114 37.3978 37.8978C39.1114 36.1842 40.0753 33.8609 40.0781 31.4375V14.5625C40.0753 12.1391 39.1114 9.81578 37.3978 8.10219C35.6842 6.38859 33.3609 5.42467 30.9375 5.42188ZM38.6719 31.4375C38.6695 33.4881 37.8539 35.454 36.404 36.904C34.954 38.3539 32.9881 39.1695 30.9375 39.1719H14.0625C12.0119 39.1695 10.046 38.3539 8.59604 36.904C7.14607 35.454 6.33045 33.4881 6.32812 31.4375V14.5625C6.33045 12.5119 7.14607 10.546 8.59604 9.09604C10.046 7.64607 12.0119 6.83045 14.0625 6.82812H30.9375C32.9881 6.83045 34.954 7.64607 36.404 9.09604C37.8539 10.546 38.6695 12.5119 38.6719 14.5625V31.4375ZM33.0469 13.8594C33.0469 14.1375 32.9644 14.4094 32.8099 14.6406C32.6554 14.8719 32.4357 15.0521 32.1788 15.1586C31.9218 15.265 31.6391 15.2929 31.3663 15.2386C31.0935 15.1843 30.8429 15.0504 30.6463 14.8537C30.4496 14.6571 30.3157 14.4065 30.2614 14.1337C30.2071 13.8609 30.235 13.5782 30.3414 13.3212C30.4479 13.0643 30.6281 12.8446 30.8594 12.6901C31.0906 12.5356 31.3625 12.4531 31.6406 12.4531C32.0136 12.4531 32.3713 12.6013 32.635 12.865C32.8987 13.1287 33.0469 13.4864 33.0469 13.8594Z" fill="#FF9A62"/>
</svg>
