<svg width="27" height="27" viewBox="0 0 27 27" fill="none" xmlns="http://www.w3.org/2000/svg">
<path d="M0.924463 0.924467C1.27608 0.572958 1.7529 0.375492 2.25009 0.375492C2.74727 0.375492 3.2241 0.572958 3.57571 0.924467L13.5001 10.8488L23.4245 0.924467C23.5974 0.745385 23.8043 0.602543 24.0331 0.504276C24.2618 0.406009 24.5079 0.354285 24.7568 0.352122C25.0058 0.349958 25.2527 0.397398 25.4831 0.491675C25.7136 0.585952 25.9229 0.725176 26.099 0.901225C26.275 1.07727 26.4142 1.28662 26.5085 1.51705C26.6028 1.74748 26.6502 1.99438 26.6481 2.24334C26.6459 2.4923 26.5942 2.73834 26.4959 2.9671C26.3976 3.19586 26.2548 3.40275 26.0757 3.57572L16.1513 13.5001L26.0757 23.4245C26.4173 23.7781 26.6062 24.2517 26.602 24.7433C26.5977 25.235 26.4005 25.7052 26.0529 26.0529C25.7052 26.4005 25.235 26.5977 24.7433 26.602C24.2517 26.6063 23.7781 26.4173 23.4245 26.0757L13.5001 16.1513L3.57571 26.0757C3.22208 26.4173 2.74845 26.6063 2.25684 26.602C1.76522 26.5977 1.29494 26.4005 0.947303 26.0529C0.599663 25.7052 0.402471 25.235 0.398199 24.7433C0.393927 24.2517 0.582917 23.7781 0.924463 23.4245L10.8488 13.5001L0.924463 3.57572C0.572955 3.2241 0.375488 2.74727 0.375488 2.25009C0.375488 1.75291 0.572955 1.27608 0.924463 0.924467Z" fill="#FF6000"/>
</svg>
