<svg width="25" height="24" viewBox="0 0 25 24" fill="none" xmlns="http://www.w3.org/2000/svg">
<path d="M24.0083 14.527C23.918 14.4368 23.8049 14.3729 23.681 14.3421C23.5571 14.3114 23.4272 14.3149 23.3052 14.3524C21.4771 14.9049 19.5332 14.9511 17.6809 14.486C15.8286 14.0209 14.1371 13.0619 12.7869 11.7113C11.4366 10.3606 10.4781 8.66895 10.0134 6.81649C9.54883 4.96403 9.59553 3.02022 10.1486 1.19222C10.1855 1.07031 10.1887 0.940666 10.1576 0.817121C10.1266 0.693576 10.0627 0.580774 9.97252 0.490765C9.88239 0.400756 9.7695 0.336921 9.64592 0.306079C9.52233 0.275237 9.39269 0.278546 9.27084 0.315654C6.84688 1.05932 4.71907 2.54825 3.18998 4.57073C1.45661 6.8724 0.612993 9.72274 0.814413 12.597C1.01583 15.4714 2.24873 18.1762 4.28616 20.2136C6.32359 22.251 9.02841 23.4839 11.9027 23.6854C14.777 23.8868 17.6274 23.0432 19.929 21.3098C21.9515 19.7807 23.4405 17.6529 24.1841 15.2289C24.2212 15.107 24.2244 14.9773 24.1935 14.8536C24.1625 14.73 24.0985 14.6171 24.0083 14.527ZM19.0865 20.186C17.0554 21.7092 14.5431 22.4488 12.0107 22.2688C9.47827 22.0888 7.09577 21.0014 5.30057 19.2062C3.50537 17.411 2.41797 15.0285 2.23799 12.4961C2.05802 9.96372 2.79756 7.45138 4.32084 5.42034C5.40582 3.98177 6.83798 2.84193 8.48334 2.10745C8.13693 4.01013 8.2571 5.96844 8.83353 7.81449C9.40995 9.66055 10.4255 11.3393 11.793 12.7068C13.1605 14.0743 14.8392 15.0898 16.6853 15.6662C18.5313 16.2427 20.4896 16.3628 22.3923 16.0164C21.6598 17.664 20.5212 19.0986 19.0829 20.186H19.0865Z" fill="#F9F9FD"/>
</svg>
