<svg width="30" height="30" viewBox="0 0 30 30" fill="none" xmlns="http://www.w3.org/2000/svg">
<path opacity="0.2" d="M21.5625 15C21.5625 16.2979 21.1776 17.5667 20.4565 18.6459C19.7354 19.7251 18.7105 20.5663 17.5114 21.063C16.3122 21.5597 14.9927 21.6896 13.7197 21.4364C12.4467 21.1832 11.2774 20.5582 10.3596 19.6404C9.44183 18.7226 8.81682 17.5533 8.5636 16.2803C8.31038 15.0073 8.44034 13.6878 8.93704 12.4886C9.43374 11.2895 10.2749 10.2646 11.3541 9.54348C12.4333 8.82238 13.7021 8.4375 15 8.4375C16.7405 8.4375 18.4097 9.1289 19.6404 10.3596C20.8711 11.5903 21.5625 13.2595 21.5625 15Z" fill="#FF9A62"/>
<path d="M14.0625 4.6875V1.875C14.0625 1.62636 14.1613 1.3879 14.3371 1.21209C14.5129 1.03627 14.7514 0.9375 15 0.9375C15.2486 0.9375 15.4871 1.03627 15.6629 1.21209C15.8387 1.3879 15.9375 1.62636 15.9375 1.875V4.6875C15.9375 4.93614 15.8387 5.1746 15.6629 5.35041C15.4871 5.52623 15.2486 5.625 15 5.625C14.7514 5.625 14.5129 5.52623 14.3371 5.35041C14.1613 5.1746 14.0625 4.93614 14.0625 4.6875ZM22.5 15C22.5 16.4834 22.0601 17.9334 21.236 19.1668C20.4119 20.4001 19.2406 21.3614 17.8701 21.9291C16.4997 22.4968 14.9917 22.6453 13.5368 22.3559C12.082 22.0665 10.7456 21.3522 9.6967 20.3033C8.6478 19.2544 7.9335 17.918 7.64411 16.4632C7.35472 15.0083 7.50325 13.5003 8.0709 12.1299C8.63856 10.7594 9.59985 9.58809 10.8332 8.76398C12.0666 7.93987 13.5166 7.5 15 7.5C16.9885 7.50217 18.8949 8.29305 20.3009 9.6991C21.707 11.1052 22.4978 13.0115 22.5 15ZM20.625 15C20.625 13.8875 20.2951 12.7999 19.677 11.8749C19.0589 10.9499 18.1804 10.2289 17.1526 9.80318C16.1248 9.37743 14.9938 9.26604 13.9026 9.48308C12.8115 9.70012 11.8092 10.2359 11.0225 11.0225C10.2359 11.8092 9.70012 12.8115 9.48308 13.9026C9.26604 14.9938 9.37743 16.1248 9.80318 17.1526C10.2289 18.1804 10.9499 19.0589 11.8749 19.677C12.7999 20.2951 13.8875 20.625 15 20.625C16.4914 20.6234 17.9212 20.0303 18.9758 18.9758C20.0303 17.9212 20.6234 16.4914 20.625 15ZM6.83672 8.16328C7.01263 8.33919 7.25122 8.43802 7.5 8.43802C7.74878 8.43802 7.98737 8.33919 8.16328 8.16328C8.33919 7.98737 8.43802 7.74878 8.43802 7.5C8.43802 7.25122 8.33919 7.01263 8.16328 6.83672L6.28828 4.96172C6.11237 4.78581 5.87378 4.68698 5.625 4.68698C5.37622 4.68698 5.13763 4.78581 4.96172 4.96172C4.78581 5.13763 4.68698 5.37622 4.68698 5.625C4.68698 5.87378 4.78581 6.11237 4.96172 6.28828L6.83672 8.16328ZM6.83672 21.8367L4.96172 23.7117C4.78581 23.8876 4.68698 24.1262 4.68698 24.375C4.68698 24.6238 4.78581 24.8624 4.96172 25.0383C5.13763 25.2142 5.37622 25.313 5.625 25.313C5.87378 25.313 6.11237 25.2142 6.28828 25.0383L8.16328 23.1633C8.25038 23.0762 8.31948 22.9728 8.36662 22.859C8.41376 22.7452 8.43802 22.6232 8.43802 22.5C8.43802 22.3768 8.41376 22.2548 8.36662 22.141C8.31948 22.0272 8.25038 21.9238 8.16328 21.8367C8.07618 21.7496 7.97277 21.6805 7.85897 21.6334C7.74516 21.5862 7.62318 21.562 7.5 21.562C7.37682 21.562 7.25484 21.5862 7.14103 21.6334C7.02723 21.6805 6.92382 21.7496 6.83672 21.8367ZM22.5 8.4375C22.6231 8.4376 22.7451 8.41343 22.8589 8.36638C22.9727 8.31933 23.0762 8.25031 23.1633 8.16328L25.0383 6.28828C25.2142 6.11237 25.313 5.87378 25.313 5.625C25.313 5.37622 25.2142 5.13763 25.0383 4.96172C24.8624 4.78581 24.6238 4.68698 24.375 4.68698C24.1262 4.68698 23.8876 4.78581 23.7117 4.96172L21.8367 6.83672C21.7055 6.96783 21.6161 7.13495 21.5798 7.3169C21.5436 7.49885 21.5621 7.68747 21.6332 7.85887C21.7042 8.03026 21.8245 8.17673 21.9788 8.27974C22.1331 8.38274 22.3145 8.43765 22.5 8.4375ZM23.1633 21.8367C22.9874 21.6608 22.7488 21.562 22.5 21.562C22.2512 21.562 22.0126 21.6608 21.8367 21.8367C21.6608 22.0126 21.562 22.2512 21.562 22.5C21.562 22.7488 21.6608 22.9874 21.8367 23.1633L23.7117 25.0383C23.7988 25.1254 23.9022 25.1945 24.016 25.2416C24.1298 25.2888 24.2518 25.313 24.375 25.313C24.4982 25.313 24.6202 25.2888 24.734 25.2416C24.8478 25.1945 24.9512 25.1254 25.0383 25.0383C25.1254 24.9512 25.1945 24.8478 25.2416 24.734C25.2888 24.6202 25.313 24.4982 25.313 24.375C25.313 24.2518 25.2888 24.1298 25.2416 24.016C25.1945 23.9022 25.1254 23.7988 25.0383 23.7117L23.1633 21.8367ZM5.625 15C5.625 14.7514 5.52623 14.5129 5.35041 14.3371C5.1746 14.1613 4.93614 14.0625 4.6875 14.0625H1.875C1.62636 14.0625 1.3879 14.1613 1.21209 14.3371C1.03627 14.5129 0.9375 14.7514 0.9375 15C0.9375 15.2486 1.03627 15.4871 1.21209 15.6629C1.3879 15.8387 1.62636 15.9375 1.875 15.9375H4.6875C4.93614 15.9375 5.1746 15.8387 5.35041 15.6629C5.52623 15.4871 5.625 15.2486 5.625 15ZM15 24.375C14.7514 24.375 14.5129 24.4738 14.3371 24.6496C14.1613 24.8254 14.0625 25.0639 14.0625 25.3125V28.125C14.0625 28.3736 14.1613 28.6121 14.3371 28.7879C14.5129 28.9637 14.7514 29.0625 15 29.0625C15.2486 29.0625 15.4871 28.9637 15.6629 28.7879C15.8387 28.6121 15.9375 28.3736 15.9375 28.125V25.3125C15.9375 25.0639 15.8387 24.8254 15.6629 24.6496C15.4871 24.4738 15.2486 24.375 15 24.375ZM28.125 14.0625H25.3125C25.0639 14.0625 24.8254 14.1613 24.6496 14.3371C24.4738 14.5129 24.375 14.7514 24.375 15C24.375 15.2486 24.4738 15.4871 24.6496 15.6629C24.8254 15.8387 25.0639 15.9375 25.3125 15.9375H28.125C28.3736 15.9375 28.6121 15.8387 28.7879 15.6629C28.9637 15.4871 29.0625 15.2486 29.0625 15C29.0625 14.7514 28.9637 14.5129 28.7879 14.3371C28.6121 14.1613 28.3736 14.0625 28.125 14.0625Z" fill="#FF9A62"/>
</svg>
