<svg width="45" height="46" viewBox="0 0 45 46" fill="none" xmlns="http://www.w3.org/2000/svg">
<path d="M39.375 15.5V30.5C39.375 32.9864 38.3873 35.371 36.6291 37.1291C34.871 38.8873 32.4864 39.875 30 39.875H15C12.5136 39.875 10.129 38.8873 8.37087 37.1291C6.61272 35.371 5.625 32.9864 5.625 30.5V15.5C5.625 13.0136 6.61272 10.629 8.37087 8.87087C10.129 7.11272 12.5136 6.125 15 6.125H30C32.4864 6.125 34.871 7.11272 36.6291 8.87087C38.3873 10.629 39.375 13.0136 39.375 15.5Z" stroke="#FF9A62" stroke-width="1.875" stroke-linecap="round" stroke-linejoin="round"/>
<path d="M18.75 23C17.6375 23 16.5499 23.3299 15.6249 23.948C14.6999 24.5661 13.9789 25.4446 13.5532 26.4724C13.1274 27.5002 13.016 28.6312 13.2331 29.7224C13.4501 30.8135 13.9859 31.8158 14.7725 32.6025C15.5592 33.3891 16.5615 33.9249 17.6526 34.1419C18.7438 34.359 19.8748 34.2476 20.9026 33.8218C21.9304 33.3961 22.8089 32.6751 23.427 31.7501C24.0451 30.8251 24.375 29.7375 24.375 28.625V11.75C24.9994 13.625 27.375 17.375 31.875 17.375" stroke="#FF9A62" stroke-width="1.875" stroke-linecap="round" stroke-linejoin="round"/>
</svg>
